<svg xmlns:xlink="http://www.w3.org/1999/xlink" xmlns="http://www.w3.org/2000/svg" viewBox="0 0 389.89473684210526 98.16499664488097" preserveAspectRatio="xMidYMid meet" class="css-18yrpox" id="dfgdfdae" width="389.89473684210526"  height="98.16499664488097" ><defs id="SvgjsDefs1903"></defs><g id="SvgjsG1904" featurekey="v37d4h-0" transform="matrix(1.0234643443487763,0,0,1.0234643443487763,14.895933059784836,7.919734618269166)" fill="#E23E57"><path xmlns="http://www.w3.org/2000/svg" d="M54.6,88C83,85.9,99.7,63,93.8,42.4c-2,1.9-4,3.7-5.8,5.3c-9,7.9-21.1,12.4-21.1,12.4s-2.1-0.1-4-2.3c-1.9-2.2-1.7-4-1.7-4  s8.7-12.5,17.8-21.1c1.8-1.7,3.8-3.4,5.9-5C68.5,10.2,41.2,10.6,40.1,13c-2,4.5,6.4,5.7,10.9,8.5c4.6,2.9,4.3,6.9-8.3,4.8  C-16.2,16.4-1.4,92.3,54.6,88z M58.2,54.3c0,0-1,2.1,2.3,5.9c2.5,2.9,5.4,3.2,5.4,3.2s-3,9.8-15.1,11.1c-12,1.3-19.2-7.4-19.2-7.4  s2.7,1.3,7.9,0.4c5.8-1,6.5-6.3,9.7-10.5C52.5,52.8,58.2,54.3,58.2,54.3z M37.4,33.4c5.7-0.9,11,1.5,11.8,5.3c0.9,3.8-3,7.6-8.7,8.5  c-5.7,0.9-11-1.5-11.8-5.3C27.8,38.1,31.7,34.3,37.4,33.4z" fill="#E23E57"></path></g><g id="SvgjsG1905" featurekey="UxBHKT-0" transform="matrix(2.6224806431352063,0,0,2.6224806431352063,128.32852810000767,21.88413972883444)" fill="#E23E57"><path d="M17.79 10.04 q1.13 1.24 1.13 3.46 l0 6.5 l-3.02 0 l0 -6.5 q0 -1.18 -0.59 -1.7 t-1.55 -0.52 q-0.8 0 -1.44 0.6 t-0.66 2 l0 6.12 l-3.02 0 l0 -6.5 q0 -1.18 -0.59 -1.7 t-1.53 -0.52 q-0.86 0 -1.49 0.64 t-0.63 2.26 l-0.02 5.82 l-2.98 0 l0 -11 l2.98 0 l0 1 q0.58 -0.52 1.4 -0.86 t1.5 -0.34 q2.32 0 3.54 1.5 q0.62 -0.7 1.54 -1.1 t2 -0.4 q2.3 0 3.43 1.24 z M23.32 24.12 l1.9 -4.52 l-4.72 -10.56 l3.46 0 l2.78 7 l2.56 -7 l3.46 0 l-6.14 15.08 l-3.3 0 z M42.58 18.9 q-0.38 0.52 -1.31 0.93 t-2.03 0.41 q-1.7 0 -2.95 -0.76 t-1.91 -2.07 t-0.66 -2.91 t0.66 -2.91 t1.91 -2.07 t2.95 -0.76 q1.14 0 2.01 0.39 t1.33 0.99 l0 -1.14 l2.96 0 l0 11 l-2.96 0 l0 -1.1 z M41.879999999999995 12.25 q-0.82 -0.87 -2.2 -0.87 q-1.4 0 -2.21 0.87 t-0.81 2.25 q0 1.34 0.83 2.22 t2.19 0.88 q1.4 0 2.21 -0.83 t0.81 -2.27 q0 -1.38 -0.82 -2.25 z M56.839999999999996 18.9 q-0.38 0.52 -1.31 0.93 t-2.03 0.41 q-1.7 0 -2.95 -0.76 t-1.91 -2.07 t-0.66 -2.91 t0.66 -2.91 t1.91 -2.07 t2.95 -0.76 q1.14 0 2.01 0.39 t1.33 0.99 l0 -5.26 l2.96 0 l0 15.12 l-2.96 0 l0 -1.1 z M56.14 12.25 q-0.82 -0.87 -2.2 -0.87 q-1.4 0 -2.21 0.87 t-0.81 2.25 q0 1.34 0.83 2.22 t2.19 0.88 q1.4 0 2.21 -0.83 t0.81 -2.27 q0 -1.38 -0.82 -2.25 z M79.16999999999999 10.04 q1.13 1.24 1.13 3.46 l0 6.5 l-3.02 0 l0 -6.5 q0 -1.18 -0.59 -1.7 t-1.55 -0.52 q-0.8 0 -1.44 0.6 t-0.66 2 l0 6.12 l-3.02 0 l0 -6.5 q0 -1.18 -0.59 -1.7 t-1.53 -0.52 q-0.86 0 -1.49 0.64 t-0.63 2.26 l-0.02 5.82 l-2.98 0 l0 -11 l2.98 0 l0 1 q0.58 -0.52 1.4 -0.86 t1.5 -0.34 q2.32 0 3.54 1.5 q0.62 -0.7 1.54 -1.1 t2 -0.4 q2.3 0 3.43 1.24 z M86.19999999999999 7.369999999999999 q-0.48 0.47 -1.16 0.47 q-0.7 0 -1.19 -0.47 t-0.49 -1.15 q0 -0.66 0.49 -1.13 t1.19 -0.47 q0.68 0 1.16 0.47 t0.48 1.13 q0 0.68 -0.48 1.15 z M83.53999999999999 9.02 l3 0 l0 10.98 l-3 0 l0 -10.98 z M98.71 10.02 q1.03 1.22 1.03 3.48 l0 6.5 l-3.06 0 l0 -6.5 q0 -2.22 -2.12 -2.22 q-0.82 0 -1.48 0.65 t-0.62 2.25 l0 5.82 l-2.98 0 l0 -11 l2.98 0 l0 0.98 q0.54 -0.54 1.36 -0.86 t1.58 -0.32 q2.28 0 3.31 1.22 z" fill="#E23E57"></path></g></svg>